<?xml version="1.0" standalone="no"?>
<!DOCTYPE svg PUBLIC "-//W3C//DTD SVG 20010904//EN"
 "http://www.w3.org/TR/2001/REC-SVG-20010904/DTD/svg10.dtd">
<svg version="1.0" xmlns="http://www.w3.org/2000/svg"
 width="1024.000000pt" height="576.000000pt" viewBox="0 0 1024.000000 576.000000"
 preserveAspectRatio="xMidYMid meet">

<g transform="translate(0.000000,576.000000) scale(0.100000,-0.100000)"
fill="#000000" stroke="none">
<path d="M1713 4808 c3 -7 112 -247 242 -533 131 -286 318 -698 417 -915 99
-217 223 -491 276 -608 l97 -212 259 2 258 3 173 380 c556 1223 855 1885 855
1890 0 3 -120 4 -266 3 l-267 -3 -139 -305 c-76 -168 -213 -467 -303 -665 -90
-198 -197 -432 -239 -519 l-75 -159 -26 54 c-14 30 -184 401 -379 824 l-354
770 -267 3 c-213 2 -266 0 -262 -10z"/>
<path d="M4481 4803 c-8 -17 -187 -412 -198 -440 -4 -10 71 -13 356 -13 l361
0 0 -905 0 -905 245 0 245 0 0 905 0 905 287 2 286 3 98 220 c54 121 98 226
98 233 1 9 -182 12 -884 12 -832 0 -885 -1 -894 -17z"/>
<path d="M6811 4804 c-191 -51 -346 -213 -387 -403 -19 -92 -19 -442 1 -536
43 -202 193 -366 385 -418 45 -13 160 -16 614 -21 503 -5 561 -7 578 -22 16
-15 18 -34 18 -180 0 -175 -5 -194 -53 -194 -12 -1 -366 -2 -787 -3 l-765 -2
0 -240 0 -240 798 -3 c887 -2 869 -4 997 64 132 69 240 209 275 355 17 75 21
443 5 530 -5 30 -28 91 -50 135 -66 135 -184 230 -335 269 -50 13 -149 15
-617 15 -545 0 -558 0 -578 20 -19 19 -20 33 -20 198 0 166 1 180 20 197 25
22 -17 21 843 23 l677 2 0 235 0 235 -782 -1 c-650 0 -792 -3 -837 -15z"/>
<path d="M1560 2097 c0 -7 29 -94 63 -193 l64 -179 50 -3 50 -3 63 183 c34
101 65 189 68 196 3 10 -7 12 -43 10 l-48 -3 -39 -125 c-21 -69 -41 -132 -44
-140 -5 -13 -54 123 -84 233 -10 36 -12 37 -55 37 -30 0 -45 -4 -45 -13z"/>
<path d="M2795 2076 c-25 -58 -125 -338 -125 -347 0 -5 20 -9 44 -9 40 0 44 2
52 33 l10 32 75 3 76 3 9 -33 c9 -31 13 -33 57 -36 26 -2 47 -1 47 1 0 10
-133 363 -139 370 -4 4 -27 10 -50 13 -40 5 -42 3 -56 -30z m82 -146 l22 -60
-45 0 c-24 0 -44 3 -44 7 0 15 34 113 39 113 3 0 16 -27 28 -60z"/>
<path d="M3544 2091 c-46 -21 -54 -35 -54 -96 0 -54 30 -87 109 -118 66 -27
85 -51 56 -73 -20 -16 -118 -15 -157 1 -15 6 -18 1 -18 -29 0 -42 14 -52 86
-61 56 -8 121 6 154 33 27 22 37 90 20 132 -9 21 -28 37 -69 56 -82 38 -84 39
-95 58 -20 31 19 49 92 42 l63 -5 -3 31 c-2 25 -9 34 -28 39 -47 13 -115 9
-156 -10z"/>
<path d="M5934 2090 c-60 -30 -85 -80 -86 -174 -1 -141 49 -192 189 -190 112
1 115 4 111 118 l-3 91 -42 3 -43 3 0 -75 c0 -75 0 -76 -25 -76 -71 0 -111 55
-103 140 9 87 65 123 162 102 l46 -10 0 38 c0 46 -9 50 -98 50 -47 0 -79 -6
-108 -20z"/>
<path d="M6274 2100 c-36 -14 -64 -59 -64 -103 0 -50 39 -89 120 -121 114 -44
46 -112 -78 -77 l-32 10 0 -39 c0 -44 11 -50 103 -50 73 0 121 20 141 59 39
74 4 135 -99 174 -50 19 -61 27 -63 49 -4 33 18 41 95 36 56 -3 56 -3 57 26 1
21 -4 30 -22 37 -29 11 -130 11 -158 -1z"/>
<path d="M7291 2100 c-83 -20 -126 -83 -126 -186 0 -60 4 -77 27 -112 16 -23
40 -48 56 -56 42 -22 113 -29 160 -16 39 10 42 13 42 46 0 32 -2 35 -22 28
-11 -3 -44 -7 -71 -7 -44 -1 -53 3 -78 31 -25 27 -29 41 -29 88 0 49 4 59 31
86 29 29 33 30 95 25 l64 -5 0 38 c0 34 -3 38 -31 44 -39 7 -74 6 -118 -4z"/>
<path d="M1980 1910 l0 -190 130 0 130 0 0 35 0 35 -90 0 -90 0 0 46 0 45 78
-2 77 -2 3 31 3 32 -80 0 -81 0 0 40 0 40 85 0 85 0 0 40 0 40 -125 0 -125 0
0 -190z"/>
<path d="M2310 1910 l0 -190 40 0 40 0 0 65 c0 61 1 65 23 65 18 0 31 -15 60
-65 l38 -65 50 0 c28 0 48 3 46 8 -2 4 -21 35 -41 69 l-37 63 27 23 c22 19 28
34 32 80 8 104 -37 137 -188 137 l-90 0 0 -190z m184 94 c35 -35 8 -74 -57
-81 l-47 -6 0 52 0 51 44 0 c27 0 51 -6 60 -16z"/>
<path d="M3100 1910 l0 -190 40 0 40 0 0 122 0 123 24 -45 c13 -25 42 -76 64
-115 l39 -70 52 -5 51 -6 0 188 0 188 -40 0 -40 0 0 -122 0 -123 -68 122 -67
123 -47 0 -48 0 0 -190z"/>
<path d="M3780 2065 l0 -35 55 0 55 0 0 -150 0 -150 40 0 40 0 0 150 0 150 55
0 55 0 0 35 0 35 -150 0 -150 0 0 -35z"/>
<path d="M4140 1923 c-35 -98 -65 -184 -68 -190 -3 -9 9 -13 40 -13 42 0 46 2
54 33 l10 32 77 3 78 3 10 -30 c9 -25 16 -30 55 -33 24 -2 44 -1 44 2 0 3 -30
87 -66 188 l-67 182 -52 0 -52 0 -63 -177z m154 -30 c7 -22 4 -23 -39 -23 -34
0 -46 4 -43 13 3 6 13 36 23 66 l18 55 17 -45 c10 -24 21 -54 24 -66z"/>
<path d="M4493 1918 l2 -183 118 -3 117 -3 0 36 0 35 -75 0 -75 0 0 150 0 150
-44 0 -44 0 1 -182z"/>
<path d="M4710 2065 l0 -35 55 0 55 0 0 -150 0 -150 40 0 40 0 0 150 0 150 55
0 55 0 0 35 0 35 -150 0 -150 0 0 -35z"/>
<path d="M5060 1968 c0 -145 11 -184 60 -220 65 -47 193 -27 231 36 16 27 19
51 19 174 l0 142 -40 0 -40 0 0 -130 c0 -117 -2 -132 -20 -150 -26 -26 -81
-26 -103 -2 -14 15 -17 42 -17 150 l0 132 -45 0 -45 0 0 -132z"/>
<path d="M5460 1912 l0 -188 41 4 40 4 -3 114 c-2 63 0 114 5 114 4 0 7 -4 7
-9 0 -5 27 -56 60 -114 l61 -105 49 -4 50 -3 0 188 0 187 -40 0 -40 0 0 -122
0 -123 -68 122 -67 123 -47 0 -48 0 0 -188z"/>
<path d="M6510 2065 l0 -35 55 0 55 0 0 -155 0 -155 40 0 40 0 0 155 0 155 55
0 55 0 0 35 0 35 -150 0 -150 0 0 -35z"/>
<path d="M6870 1913 l0 -188 122 2 123 2 3 35 3 36 -85 0 -86 0 0 40 0 40 75
0 75 0 0 35 0 35 -75 0 -75 0 0 40 0 39 83 3 82 3 3 33 3 32 -125 0 -126 0 0
-187z"/>
<path d="M7510 1910 l0 -190 40 0 40 0 0 80 0 80 75 0 75 0 0 -80 0 -80 40 0
40 0 0 190 0 190 -40 0 -39 0 -3 -72 -3 -73 -70 0 -70 0 -3 73 -3 72 -39 0
-40 0 0 -190z"/>
<path d="M7910 1911 l0 -191 40 0 40 0 0 123 0 122 29 -56 c17 -30 47 -84 68
-120 38 -63 39 -64 86 -67 l47 -2 0 190 0 190 -40 0 -40 0 0 -122 0 -123 -68
120 -68 120 -47 3 -47 3 0 -190z"/>
<path d="M8310 1909 l0 -190 38 3 37 3 3 188 2 187 -40 0 -40 0 0 -191z"/>
<path d="M8470 1913 l0 -188 40 0 39 -1 3 83 3 83 60 -83 61 -82 52 0 c29 0
52 2 52 4 0 2 -34 46 -76 98 l-75 94 58 72 c95 116 92 107 35 107 l-50 0 -58
-77 -59 -76 -3 76 -3 77 -39 0 -40 0 0 -187z"/>
<path d="M3463 1485 c-42 -18 -65 -56 -65 -104 1 -55 25 -87 80 -107 96 -35
111 -43 121 -62 7 -14 6 -25 -6 -41 -14 -21 -22 -23 -95 -19 l-79 3 3 -35 c3
-32 6 -35 48 -43 74 -13 146 0 184 34 38 33 48 66 35 115 -13 44 -55 78 -133
104 -66 22 -83 40 -70 74 8 21 40 29 109 24 l55 -3 0 31 c0 20 -6 34 -16 38
-29 11 -138 5 -171 -9z"/>
<path d="M3797 1493 c-4 -3 -7 -98 -7 -210 l0 -203 45 0 45 0 0 210 0 210 -38
0 c-21 0 -42 -3 -45 -7z"/>
<path d="M4000 1290 l0 -210 140 0 140 0 0 40 0 40 -95 0 -95 0 0 51 0 51 80
-4 80 -3 0 38 0 37 -80 0 -80 0 0 48 0 47 90 -3 90 -4 0 41 0 41 -135 0 -135
0 0 -210z"/>
<path d="M4461 1487 c-19 -6 -48 -25 -66 -43 -87 -87 -65 -293 37 -345 38 -20
125 -25 201 -13 l37 7 0 108 0 109 -45 0 -45 0 0 -80 0 -80 -39 0 c-73 0 -119
66 -108 157 10 90 58 125 165 121 l72 -3 0 31 c0 20 -6 34 -16 38 -25 10 -156
5 -193 -7z"/>
<path d="M4750 1493 c-1 -4 23 -99 52 -210 l53 -203 47 0 47 0 15 53 c8 28 26
93 39 142 14 50 27 83 30 75 3 -8 20 -72 38 -142 l33 -128 52 0 52 0 51 205
c28 112 51 207 51 210 0 4 -19 5 -42 3 l-42 -3 -28 -120 c-15 -66 -31 -131
-34 -145 -5 -19 -16 12 -43 120 l-37 145 -46 3 c-54 3 -43 25 -94 -181 -15
-59 -29 -106 -31 -103 -2 2 -19 66 -37 142 l-33 139 -47 3 c-25 2 -46 -1 -46
-5z"/>
<path d="M5453 1463 c-5 -21 -37 -116 -71 -210 l-60 -173 47 0 c46 0 47 1 61
43 l15 42 80 -1 79 -2 15 -41 c15 -40 16 -41 63 -41 l48 0 -11 28 c-6 15 -37
101 -69 192 -32 91 -61 173 -65 183 -6 13 -19 17 -64 17 l-57 0 -11 -37z m127
-223 c0 -3 -25 -5 -55 -5 -33 0 -55 4 -55 11 0 9 29 99 46 144 3 9 18 -18 35
-65 15 -44 29 -82 29 -85z"/>
<path d="M5807 1493 c-4 -3 -7 -98 -7 -210 l0 -203 45 0 44 0 3 78 c3 75 4 77
29 80 24 3 32 -6 74 -77 l47 -81 50 0 c27 0 47 3 45 8 -3 4 -23 37 -46 75 -22
37 -41 72 -41 77 0 5 9 14 20 20 51 27 67 135 28 185 -33 42 -76 55 -186 55
-54 0 -102 -3 -105 -7z m203 -83 c24 -24 26 -63 5 -84 -17 -16 -98 -32 -114
-21 -6 3 -11 33 -11 66 l0 59 50 0 c37 0 55 -5 70 -20z"/>
<path d="M6248 1493 l-28 -4 0 -205 0 -204 93 0 c50 0 109 5 129 10 91 26 134
102 126 224 -9 136 -68 187 -214 185 -43 -1 -91 -4 -106 -6z m184 -84 c44 -24
62 -131 33 -194 -19 -39 -51 -55 -110 -55 l-45 0 0 130 0 130 51 0 c28 0 59
-5 71 -11z"/>
<path d="M6632 1463 l3 -38 57 0 58 0 0 -173 0 -174 38 4 37 3 5 170 5 170 57
1 c32 0 58 3 58 7 0 4 0 21 0 37 l0 30 -161 0 -160 0 3 -37z"/>
</g>
</svg>
